<svg width="272" height="41" viewBox="0 0 272 41" fill="none" xmlns="http://www.w3.org/2000/svg">
<path d="M19.536 6.904L13.488 24.096H25.696L19.704 6.904H19.536ZM0.608 40L15.952 0.0159974H23.4L38.8 40H31.296L27.544 29.416H11.584L7.832 40H0.608ZM63.6076 25.552C63.6076 20.288 60.8636 15.304 55.5996 15.304C50.2236 15.304 47.4796 19.392 47.4796 25.552C47.4796 31.376 50.4476 35.744 55.5996 35.744C61.4236 35.744 63.6076 30.592 63.6076 25.552ZM41.3196 40V0.0159974H47.7036V14.8H47.8156C49.5516 12 53.1916 10.264 56.4396 10.264C65.5676 10.264 69.9916 17.208 69.9916 25.664C69.9916 33.448 66.0716 40.784 57.5036 40.784C53.5836 40.784 49.3836 39.832 47.4796 36.024H47.3676V40H41.3196ZM88.0979 35.744C93.8099 35.744 96.3299 30.536 96.3299 25.496C96.3299 20.512 93.8099 15.304 88.0979 15.304C82.3859 15.304 79.8659 20.512 79.8659 25.496C79.8659 30.536 82.3859 35.744 88.0979 35.744ZM88.0979 40.784C78.8019 40.784 73.4819 34.4 73.4819 25.496C73.4819 16.648 78.8019 10.264 88.0979 10.264C97.3939 10.264 102.714 16.648 102.714 25.496C102.714 34.4 97.3939 40.784 88.0979 40.784ZM132.885 11.048V40H126.613V35.968H126.501C124.933 38.88 121.461 40.784 118.269 40.784C110.709 40.784 107.461 36.976 107.461 29.416V11.048H113.845V28.8C113.845 33.896 115.917 35.744 119.389 35.744C124.709 35.744 126.501 32.328 126.501 27.848V11.048H132.885ZM136.145 15.808V11.048H140.961V2.368H147.345V11.048H153.113V15.808H147.345V31.264C147.345 33.896 147.569 35.24 150.425 35.24C151.321 35.24 152.217 35.24 153.113 35.016V39.944C151.713 40.056 150.369 40.28 148.969 40.28C142.305 40.28 141.073 37.704 140.961 32.888V15.808H136.145ZM172.9 40V0.0159974H179.9V15.92H198.1V0.0159974H205.1V40H198.1V21.968H179.9V40H172.9ZM212.922 40V0.0159974H219.922V33.952H240.25V40H212.922ZM244.518 40V0.0159974H251.518V33.952H271.846V40H244.518Z" fill="white"/>
</svg>
