<?xml version="1.0" encoding="utf-8"?>
<!-- Generator: Adobe Illustrator 16.0.0, SVG Export Plug-In . SVG Version: 6.00 Build 0)  -->
<!DOCTYPE svg PUBLIC "-//W3C//DTD SVG 1.1//EN" "http://www.w3.org/Graphics/SVG/1.1/DTD/svg11.dtd">
<svg version="1.1" id="Layer_1" xmlns="http://www.w3.org/2000/svg" xmlns:xlink="http://www.w3.org/1999/xlink" x="0px" y="0px"
	 width="418.308px" height="94.366px" viewBox="0 0 418.308 94.366" enable-background="new 0 0 418.308 94.366"
	 xml:space="preserve">
<g>
	<defs>
		<rect id="SVGID_1_" width="418.308" height="94.366"/>
	</defs>
	<clipPath id="SVGID_2_">
		<use xlink:href="#SVGID_1_"  overflow="visible"/>
	</clipPath>
	<path clip-path="url(#SVGID_2_)" fill="#FFFFFF" d="M2.413,25.734L0,24.186C5.004,19.717,6.91,13.016,7,6.462H1.132V3.932H7V0
		h2.799v3.932h5.957v2.531H9.799c-0.029,1.43-0.119,2.89-0.327,4.319c1.37,4.468,4.258,9.413,7.684,12.927l-2.234,1.578
		c-2.531-2.769-4.855-6.373-6.434-9.828C7.327,19.359,5.361,22.964,2.413,25.734 M20.166,0.863h2.799v25.734h-2.799v-12.39H14
		v-2.532h6.166V0.863z"/>
	<path clip-path="url(#SVGID_2_)" fill="#FFFFFF" d="M26.814,12.599h24.632v2.502H26.814V12.599z M43.613,10.663h-8.966
		c-4.467,0-6.701-1.698-6.701-4.915c0-2.949,2.234-4.885,6.701-4.885h8.966c4.497,0,6.731,1.936,6.731,4.885
		C50.344,8.965,48.11,10.663,43.613,10.663 M50.046,26.299H28.213v-8.936h21.833V26.299z M34.647,8.19h8.966
		c2.799,0,3.782-1.042,3.782-2.442c0-1.4-0.983-2.442-3.782-2.442h-8.966c-2.501,0-3.782,1.042-3.782,2.442
		C30.865,7.148,31.847,8.19,34.647,8.19 M31.013,23.828h16.233v-3.991H31.013V23.828z"/>
	<path clip-path="url(#SVGID_2_)" fill="#FFFFFF" d="M74.925,15.13H61.76V1.4h13.165V15.13z M83.592,23.798V26.3H62.326v-8.101
		h2.799v5.599H83.592z M64.56,12.599h7.566V3.932H64.56V12.599z M86.659,8.578v2.532h-3.634v9.203h-2.799V0.864h2.799v7.714H86.659z
		"/>
	<path clip-path="url(#SVGID_2_)" fill="#FFFFFF" d="M88.573,25.466V1.399h2.8v21.534h12.866v2.533H88.573z M109.838,13.641v12.957
		h-2.8V0.863h2.8v10.276h3.634v2.502H109.838z"/>
	<path clip-path="url(#SVGID_2_)" fill="#FFFFFF" d="M114.254,13.73h24.632v2.532h-24.632V13.73z M115.654,10.306V1.132h2.799v6.731
		h19.331v2.443H115.654z M137.784,23.798V26.3h-22.13v-7.804h2.799v5.302H137.784z"/>
	<path clip-path="url(#SVGID_2_)" fill="#FFFFFF" d="M174.782,16.899v2.448h-5.744v7.115h-2.741v-7.115h-7.114v7.115h-2.741v-7.115
		h-5.773v-2.448H174.782z M166.297,13.341h-7.114c-4.549,0-7.697-2.478-7.697-6.181c0-3.703,3.148-6.152,7.697-6.152h7.114
		c4.519,0,7.669,2.449,7.669,6.152C173.966,10.863,170.816,13.341,166.297,13.341 M159.183,10.863h7.114
		c2.887,0,4.782-1.371,4.782-3.703c0-2.333-1.895-3.703-4.782-3.703h-7.114c-2.886,0-4.811,1.37-4.811,3.703
		C154.372,9.492,156.297,10.863,159.183,10.863"/>
	<path clip-path="url(#SVGID_2_)" fill="#FFFFFF" d="M177.725,17.452V9.23c0-5.365,2.741-7.96,6.735-7.96
		c3.966,0,6.707,2.595,6.707,7.96v8.222c0,5.307-2.741,7.902-6.707,7.902C180.466,25.354,177.725,22.759,177.725,17.452
		 M180.466,9.23v8.222c0,3.82,1.37,5.453,3.994,5.453c2.595,0,3.966-1.633,3.966-5.453V9.23c0-3.849-1.371-5.482-3.966-5.482
		C181.836,3.748,180.466,5.381,180.466,9.23 M198.835,13.516V26.2h-2.741V1.008h2.741v10.059h3.557v2.449H198.835z"/>
	<path clip-path="url(#SVGID_2_)" fill="#FFFFFF" d="M203.702,7.713c0-3.849,2.829-6.706,6.706-6.706
		c3.907,0,6.736,2.857,6.736,6.706c0,3.849-2.829,6.707-6.736,6.707C206.531,14.42,203.702,11.563,203.702,7.713 M219.593,26.461
		h-8.222c-4.112,0-6.562-2.07-6.562-5.044c0-3.003,2.449-5.073,6.562-5.073h8.222c4.111,0,6.59,2.07,6.59,5.073
		C226.183,24.392,223.704,26.461,219.593,26.461 M206.443,7.713c0,2.333,1.516,4.257,3.964,4.257c2.479,0,3.995-1.924,3.995-4.257
		c0-2.332-1.516-4.256-3.995-4.256C207.958,3.458,206.443,5.382,206.443,7.713 M211.371,24.042h8.222
		c2.186,0,3.702-1.02,3.702-2.624c0-1.633-1.517-2.653-3.702-2.653h-8.222c-2.188,0-3.704,1.02-3.704,2.653
		C207.667,23.021,209.184,24.042,211.371,24.042 M225.628,1.008v14.17h-2.741V11.68h-4.664v-2.45h4.664V6.198h-4.664V3.749h4.664
		V1.008H225.628z"/>
	<path clip-path="url(#SVGID_2_)" fill="#FFFFFF" d="M230.204,17.452V9.229c0-5.219,2.624-7.96,6.59-7.96
		c3.965,0,6.589,2.741,6.589,7.96v8.222c0,5.161-2.624,7.902-6.589,7.902C232.828,25.354,230.204,22.613,230.204,17.452
		 M232.944,9.229v8.222c0,3.82,1.37,5.453,3.85,5.453c2.478,0,3.849-1.633,3.849-5.453V9.229c0-3.849-1.371-5.481-3.849-5.481
		C234.314,3.749,232.944,5.381,232.944,9.229 M249.127,13.604h-4.665v-2.479h4.665V1.008h2.741V26.2h-2.741V13.604z"/>
	<path clip-path="url(#SVGID_2_)" fill="#FFFFFF" d="M266.943,1.077h2.799c0,2.829-0.178,5.748-0.565,8.637
		c1.341,5.094,3.991,10.276,7.685,13.791l-2.055,1.906c-2.859-2.829-5.094-6.642-6.583-10.395
		c-0.894,3.813-2.204,7.476-4.081,10.753l-2.501-1.311C265.573,17.578,266.943,9.208,266.943,1.077 M282.074,0.809h2.8v25.734h-2.8
		V0.809z"/>
	<path clip-path="url(#SVGID_2_)" fill="#FFFFFF" d="M290.421,15.791l-1.698-2.086c5.988-2.144,10.366-7.029,11.408-12.896
		l2.771,0.536c-0.208,1.281-0.596,2.561-1.133,3.782c2.83,3.485,7.03,6.255,11.587,7.477l-1.459,2.233
		c-4.289-1.28-8.519-3.991-11.438-7.237C298.105,11.323,294.412,14.301,290.421,15.791 M313.355,25.411h-24.633v-2.532h24.633
		V25.411z"/>
	<path clip-path="url(#SVGID_2_)" fill="#FFFFFF" d="M327.034,12.544v2.531h-10.366V1.345h9.502v2.531h-6.702v2.949h6.434v2.502
		h-6.434v3.217H327.034z M338.501,26.245h-20.998v-8.638h20.998V26.245z M320.302,23.773h15.399V20.05h-15.399V23.773z
		 M332.721,0.928v15.399h-2.77v-7h-3.127V6.825h3.127V0.928H332.721z M335.701,0.809h2.8v15.518h-2.8V0.809z"/>
	<path clip-path="url(#SVGID_2_)" fill="#FFFFFF" d="M350.481,3.876V1.345h13.673v2.531h-5.571
		c-0.089,1.221-0.268,2.384-0.536,3.515c1.669,2.71,4.588,5.182,7.685,6.851l-1.816,2.054c-2.65-1.518-5.153-3.634-6.94-5.897
		c-1.251,2.681-3.127,4.944-5.42,6.672l-2.205-1.787c3.753-2.502,6.138-6.374,6.435-11.408H350.481z M351.316,26.245v-7.803h2.8
		v5.301h18.764v2.502H351.316z M369.515,7.242V0.81h2.8v19.449h-2.8V9.745h-5.868V7.242H369.515z"/>
	<path clip-path="url(#SVGID_2_)" fill="#FFFFFF" d="M385.367,3.876c-0.088,0.834-0.208,1.639-0.387,2.413
		c1.669,2.561,4.289,4.647,7.298,6.255l-1.817,2.085c-2.591-1.489-4.854-3.306-6.553-5.391c-1.251,2.532-3.188,4.617-5.54,6.136
		l-2.204-1.788c3.634-2.145,5.987-5.391,6.404-9.71h-5.272V1.345h13.672v2.531H385.367z M399.129,16.207v10.038h-20.998V16.207
		h2.858v2.383h15.34v-2.383H399.129z M380.93,23.773h15.399v-2.74H380.93V23.773z M399.129,15.135h-2.8V0.809h2.8V15.135z"/>
	<polygon clip-path="url(#SVGID_2_)" fill="#FFFFFF" points="278.89,72.138 296.027,71.966 296.027,62.474 278.89,62.646 	"/>
	<path clip-path="url(#SVGID_2_)" fill="#FFFFFF" d="M325.771,64.713c1.854-1.396,3.193-2.88,4.015-4.473
		c0.822-1.587,1.233-3.352,1.233-5.299c0-2.99-0.903-5.587-2.714-7.788c-1.81-2.206-4.249-3.712-7.312-4.523
		c-2.16-0.604-5.572-0.903-10.237-0.903h-8.042v51.151h14.346c4.127,0,7.366-0.583,9.709-1.754c2.348-1.171,4.26-2.941,5.744-5.31
		c1.486-2.357,2.227-4.979,2.227-7.854c0-2.992-0.715-5.583-2.154-7.773C331.151,67.999,328.879,66.173,325.771,64.713
		 M312.45,51.012h2.515c2.231,0,3.9,0.472,4.99,1.41c1.095,0.933,1.642,2.205,1.642,3.803c0,1.719-0.576,3.078-1.729,4.071
		c-1.151,0.999-2.915,1.491-5.288,1.491h-2.13V51.012z M323.068,82.063c-1.405,1.02-4.132,1.531-8.179,1.531h-2.439V70.482h2.022
		c3.84,0,6.582,0.64,8.23,1.912c1.653,1.277,2.474,3.018,2.474,5.223C325.177,79.559,324.479,81.045,323.068,82.063"/>
	<polygon clip-path="url(#SVGID_2_)" fill="#FFFFFF" points="389.33,91.591 398.284,79.178 407.284,91.591 418.309,91.591 
		403.781,71.563 416.629,53.755 405.783,53.755 398.346,64.068 390.866,53.755 379.849,53.755 392.85,71.689 378.495,91.591 	"/>
	<path clip-path="url(#SVGID_2_)" fill="#FFFFFF" d="M358.882,52.78c-10.958,0-19.841,8.902-19.841,19.891
		s8.883,19.897,19.841,19.897c10.957,0,19.841-8.909,19.841-19.897S369.839,52.78,358.882,52.78 M358.882,83.679
		c-5.705,0-10.329-4.928-10.329-11.008c0-6.074,4.624-11.003,10.329-11.003c5.704,0,10.329,4.929,10.329,11.003
		C369.211,78.751,364.586,83.679,358.882,83.679"/>
	<path clip-path="url(#SVGID_2_)" fill="#FFFFFF" d="M273.4,67.295c0-14.461-11.603-26.179-25.91-26.179
		c-5.461,0-10.522,1.719-14.705,4.634l-6.029-6.003l-6.541,6.541l6.051,6.023c-2.947,4.243-4.686,9.406-4.686,14.983
		c0,14.461,11.602,26.179,25.91,26.179c5.663,0,10.881-1.855,15.145-4.969l5.888,5.861l6.541-6.541l-6.024-5.998
		C271.793,77.669,273.4,72.675,273.4,67.295 M247.49,84.24c-9.051,0-16.383-7.585-16.383-16.945c0-2.956,0.734-5.735,2.022-8.154
		l22.782,22.67C253.447,83.343,250.572,84.24,247.49,84.24 M262.108,74.926l-22.56-22.446c2.354-1.354,5.057-2.131,7.941-2.131
		c9.051,0,16.388,7.586,16.388,16.946C263.878,70.043,263.229,72.629,262.108,74.926"/>
	<path clip-path="url(#SVGID_2_)" fill="#FFFFFF" d="M147.213,63.054c4.072,0,5.703,2.069,5.703,6.226
		c0,12.524-8.176,21.928-21.152,21.928c-13.155,0-22.319-10.442-22.319-23.884c0-13.489,9.093-23.865,22.319-23.865
		c9.798,0,17.842,4.607,17.842,9.131c0,2.816-1.754,4.55-4.02,4.55c-4.415,0-5.331-4.725-13.822-4.725
		c-8.101,0-12.206,7.066-12.206,14.909c0,7.932,3.964,14.941,12.206,14.941c5.129,0,11.02-2.873,11.02-10.264h-6.61
		c-2.661,0-4.547-1.885-4.547-4.537c0-2.727,2.069-4.41,4.547-4.41H147.213z"/>
	<path clip-path="url(#SVGID_2_)" fill="#FFFFFF" d="M72.67,90.58c10.447,0,20.142-7.837,20.142-18.496V49.428
		c0-3.136-2.008-4.895-4.702-4.895c-2.694,0-4.702,1.758-4.702,4.895v22.153c0,5.774-5.002,10.123-10.964,10.123
		c-5.961,0-10.959-4.349-10.959-10.123V49.428c0-3.136-2.008-4.895-4.701-4.895c-2.695,0-4.702,1.758-4.702,4.895v22.656
		c0,10.659,9.69,18.496,20.137,18.496H72.67z"/>
	<path clip-path="url(#SVGID_2_)" fill="#FFFFFF" d="M42.672,44.533c-3.493,0-4.542,2.567-4.542,2.567L24.66,74.36l-13.559-27.26
		c0,0-1.072-2.567-4.603-2.567c-2.727,0-4.913,1.772-4.913,4.946v35.968c0,3.173,2.031,4.945,4.753,4.945
		c2.717,0,4.739-1.772,4.739-4.945V65.099l9.686,19.836c0.972,1.711,2.397,2.393,3.897,2.393s2.939-0.682,3.922-2.393l9.666-19.836
		v20.349c0,3.173,2.022,4.945,4.753,4.945c2.722,0,4.749-1.772,4.749-4.945V49.479C47.75,46.305,45.39,44.533,42.672,44.533"/>
	<path clip-path="url(#SVGID_2_)" fill="#FFFFFF" d="M42.672,44.533c-3.493,0-4.542,2.567-4.542,2.567L24.66,74.36l-13.559-27.26
		c0,0-1.072-2.567-4.603-2.567c-2.727,0-4.913,1.772-4.913,4.946v35.968c0,3.173,2.031,4.945,4.753,4.945
		c2.717,0,4.739-1.772,4.739-4.945V65.099l9.686,19.836c0.972,1.711,2.397,2.393,3.897,2.393s2.939-0.682,3.922-2.393l9.666-19.836
		v20.349c0,3.173,2.022,4.945,4.753,4.945c2.722,0,4.749-1.772,4.749-4.945V49.479C47.75,46.305,45.39,44.533,42.672,44.533"/>
	<path clip-path="url(#SVGID_2_)" fill="#FFFFFF" d="M106.298,51.175c0,2.412-1.956,4.368-4.368,4.368
		c-2.416,0-4.372-1.956-4.372-4.368s1.956-4.373,4.372-4.373C104.342,46.802,106.298,48.763,106.298,51.175"/>
	<path clip-path="url(#SVGID_2_)" fill="#FFFFFF" d="M106.298,66.195c0,2.412-1.956,4.368-4.368,4.368
		c-2.416,0-4.372-1.956-4.372-4.368s1.956-4.373,4.372-4.373C104.342,61.822,106.298,63.783,106.298,66.195"/>
	<path clip-path="url(#SVGID_2_)" fill="#FFFFFF" d="M180.688,43.457c-13.188,0-23.874,10.691-23.874,23.875
		c0,13.188,10.686,23.879,23.874,23.879s23.875-10.691,23.875-23.879C204.563,54.148,193.876,43.457,180.688,43.457 M190.468,75.884
		h-6.456v-6.239h-6.732v6.239h-6.366V64.586l9.779-8.195l9.775,8.195V75.884z"/>
</g>
</svg>
