<?xml version="1.0" encoding="utf-8"?>
<!-- Generator: Adobe Illustrator 16.0.0, SVG Export Plug-In . SVG Version: 6.00 Build 0)  -->
<!DOCTYPE svg PUBLIC "-//W3C//DTD SVG 1.1//EN" "http://www.w3.org/Graphics/SVG/1.1/DTD/svg11.dtd">
<svg version="1.1" id="Layer_1" xmlns="http://www.w3.org/2000/svg" xmlns:xlink="http://www.w3.org/1999/xlink" x="0px" y="0px"
	 width="506.814px" height="111.862px" viewBox="0 0 506.814 111.862" enable-background="new 0 0 506.814 111.862"
	 xml:space="preserve">
<g>
	<defs>
		<rect id="SVGID_1_" width="506.814" height="111.862"/>
	</defs>
	<clipPath id="SVGID_2_">
		<use xlink:href="#SVGID_1_"  overflow="visible"/>
	</clipPath>
	<path clip-path="url(#SVGID_2_)" fill="#EE4044" d="M3.052,32.554L0,30.594c6.33-5.651,8.742-14.129,8.856-22.419H1.433V4.973
		h7.423v-4.974h3.542v4.974h7.535v3.202h-7.535c-0.038,1.81-0.152,3.655-0.415,5.464c1.733,5.652,5.387,11.906,9.72,16.352
		l-2.826,1.997c-3.201-3.503-6.141-8.063-8.138-12.434C9.269,24.49,6.781,29.05,3.052,32.554 M25.509,1.092h3.541v32.555h-3.541
		V17.972h-7.8v-3.203h7.8V1.092z"/>
	<path clip-path="url(#SVGID_2_)" fill="#EE4044" d="M33.921,15.937H65.08v3.166H33.921V15.937z M55.171,13.489H43.83
		c-5.652,0-8.478-2.149-8.478-6.218c0-3.73,2.826-6.179,8.478-6.179h11.341c5.689,0,8.515,2.449,8.515,6.179
		C63.686,11.34,60.86,13.489,55.171,13.489 M63.309,33.269H35.691V21.966h27.618V33.269z M43.83,10.361h11.341
		c3.542,0,4.786-1.319,4.786-3.09s-1.244-3.089-4.786-3.089H43.83c-3.165,0-4.784,1.318-4.784,3.089S40.288,10.361,43.83,10.361
		 M39.232,30.143h20.536v-5.05H39.232V30.143z"/>
	<path clip-path="url(#SVGID_2_)" fill="#EE4044" d="M94.782,19.14H78.128V1.771h16.653V19.14z M105.747,30.104v3.165H78.844V23.021
		h3.542v7.083H105.747z M81.669,15.937h9.571V4.973h-9.571V15.937z M109.626,10.851v3.202h-4.597v11.643h-3.542V1.092h3.542v9.759
		H109.626z"/>
	<path clip-path="url(#SVGID_2_)" fill="#EE4044" d="M112.047,32.215V1.771h3.542v27.24h16.276v3.204H112.047z M138.948,17.256
		v16.391h-3.541V1.092h3.541v12.999h4.597v3.165H138.948z"/>
	<path clip-path="url(#SVGID_2_)" fill="#EE4044" d="M144.535,17.37h31.159v3.202h-31.159V17.37z M146.306,13.037V1.431h3.541v8.516
		H174.3v3.09H146.306z M174.3,30.104v3.165h-27.995v-9.871h3.541v6.706H174.3z"/>
	<path clip-path="url(#SVGID_2_)" fill="#EE4044" d="M221.103,21.376v3.098h-7.266v9h-3.467v-9h-9v9h-3.467v-9h-7.304v-3.098
		H221.103z M210.37,16.876h-9c-5.754,0-9.737-3.135-9.737-7.82c0-4.683,3.983-7.782,9.737-7.782h9c5.717,0,9.701,3.099,9.701,7.782
		C220.071,13.742,216.087,16.876,210.37,16.876 M201.37,13.742h9c3.651,0,6.049-1.733,6.049-4.685c0-2.95-2.398-4.683-6.049-4.683
		h-9c-3.651,0-6.086,1.733-6.086,4.683C195.284,12.008,197.719,13.742,201.37,13.742"/>
	<path clip-path="url(#SVGID_2_)" fill="#EE4044" d="M224.827,22.077V11.676c0-6.787,3.467-10.07,8.519-10.07
		c5.017,0,8.484,3.283,8.484,10.07v10.401c0,6.713-3.467,9.997-8.484,9.997C228.294,32.074,224.827,28.79,224.827,22.077
		 M228.294,11.676v10.401c0,4.833,1.733,6.898,5.052,6.898c3.284,0,5.017-2.065,5.017-6.898V11.676c0-4.869-1.733-6.934-5.017-6.934
		C230.027,4.742,228.294,6.807,228.294,11.676 M251.531,17.098v16.045h-3.467V1.275h3.467v12.724h4.5v3.099H251.531z"/>
	<path clip-path="url(#SVGID_2_)" fill="#EE4044" d="M257.688,9.758c0-4.869,3.578-8.483,8.483-8.483
		c4.941,0,8.521,3.614,8.521,8.483s-3.579,8.484-8.521,8.484C261.266,18.242,257.688,14.627,257.688,9.758 M277.789,33.475h-10.4
		c-5.201,0-8.299-2.619-8.299-6.382c0-3.798,3.098-6.417,8.299-6.417h10.4c5.201,0,8.336,2.619,8.336,6.417
		C286.125,30.856,282.99,33.475,277.789,33.475 M261.154,9.758c0,2.951,1.917,5.385,5.017,5.385c3.136,0,5.054-2.434,5.054-5.385
		c0-2.951-1.918-5.384-5.054-5.384C263.071,4.374,261.154,6.807,261.154,9.758 M267.389,30.414h10.4
		c2.767,0,4.685-1.291,4.685-3.321c0-2.065-1.918-3.355-4.685-3.355h-10.4c-2.768,0-4.686,1.29-4.686,3.355
		C262.703,29.123,264.621,30.414,267.389,30.414 M285.425,1.275v17.926h-3.468v-4.426h-5.9v-3.099h5.9V7.84h-5.9V4.742h5.9V1.275
		H285.425z"/>
	<path clip-path="url(#SVGID_2_)" fill="#EE4044" d="M291.214,22.077V11.676c0-6.603,3.319-10.071,8.335-10.071
		c5.018,0,8.336,3.468,8.336,10.071v10.401c0,6.528-3.318,9.996-8.336,9.996C294.533,32.073,291.214,28.605,291.214,22.077
		 M294.68,11.676v10.401c0,4.832,1.734,6.898,4.869,6.898s4.869-2.066,4.869-6.898V11.676c0-4.869-1.734-6.935-4.869-6.935
		S294.68,6.807,294.68,11.676 M315.151,17.208h-5.9v-3.135h5.9V1.274h3.468v31.869h-3.468V17.208z"/>
	<path clip-path="url(#SVGID_2_)" fill="#EE4044" d="M337.689,1.363h3.542c0,3.578-0.227,7.271-0.717,10.926
		c1.697,6.443,5.05,13,9.722,17.446l-2.6,2.411c-3.618-3.58-6.443-8.402-8.327-13.15c-1.132,4.823-2.788,9.458-5.162,13.602
		l-3.164-1.658C335.956,22.236,337.689,11.649,337.689,1.363 M356.831,1.023h3.542v32.555h-3.542V1.023z"/>
	<path clip-path="url(#SVGID_2_)" fill="#EE4044" d="M367.389,19.976l-2.146-2.639c7.574-2.712,13.111-8.891,14.431-16.314
		l3.503,0.679c-0.262,1.62-0.752,3.239-1.431,4.784c3.58,4.409,8.892,7.913,14.657,9.458l-1.847,2.826
		c-5.426-1.62-10.775-5.05-14.468-9.156C377.11,14.324,372.438,18.091,367.389,19.976 M396.402,32.146h-31.16v-3.203h31.16V32.146z"
		/>
	<path clip-path="url(#SVGID_2_)" fill="#EE4044" d="M413.705,15.869v3.202h-13.113V1.702h12.021v3.202h-8.479v3.73h8.14v3.165
		h-8.14v4.07H413.705z M428.212,33.201h-26.563V22.273h26.563V33.201z M405.189,30.074h19.479v-4.71h-19.479V30.074z M420.9,1.173
		v19.481h-3.504v-8.855h-3.956V8.634h3.956V1.173H420.9z M424.67,1.023h3.542v19.631h-3.542V1.023z"/>
	<path clip-path="url(#SVGID_2_)" fill="#EE4044" d="M443.368,4.903V1.702h17.295v3.202h-7.047c-0.112,1.545-0.339,3.015-0.68,4.446
		c2.112,3.429,5.805,6.556,9.724,8.666l-2.299,2.6c-3.354-1.921-6.521-4.597-8.779-7.46c-1.582,3.391-3.956,6.254-6.858,8.44
		l-2.788-2.26c4.748-3.165,7.764-8.064,8.139-14.432H443.368z M444.424,33.2v-9.872h3.542v6.707h23.736V33.2H444.424z
		 M467.445,9.162V1.022h3.542v24.605h-3.542V12.327h-7.423V9.162H467.445z"/>
	<path clip-path="url(#SVGID_2_)" fill="#EE4044" d="M487.499,4.904c-0.113,1.055-0.264,2.072-0.49,3.053
		c2.111,3.239,5.426,5.877,9.231,7.912l-2.298,2.637c-3.277-1.883-6.143-4.182-8.289-6.82c-1.582,3.203-4.032,5.84-7.01,7.762
		l-2.787-2.261c4.597-2.713,7.573-6.819,8.101-12.283h-6.668V1.702h17.294v3.202H487.499z M504.907,20.502v12.699h-26.564V20.502
		h3.617v3.015h19.405v-3.015H504.907z M481.885,30.074h19.479v-3.467h-19.479V30.074z M504.907,19.147h-3.542V1.023h3.542V19.147z"
		/>
	<polygon clip-path="url(#SVGID_2_)" fill="#EE4044" points="343.277,85.789 363.381,85.586 363.381,74.453 343.277,74.655 	"/>
	<path clip-path="url(#SVGID_2_)" fill="#EE4044" d="M398.27,77.078c2.177-1.635,3.747-3.378,4.71-5.246
		c0.964-1.86,1.444-3.931,1.444-6.214c0-3.51-1.058-6.555-3.181-9.136c-2.124-2.587-4.985-4.354-8.578-5.306
		c-2.533-0.708-6.536-1.058-12.007-1.058h-9.433v60h16.825c4.842,0,8.643-0.684,11.39-2.058c2.754-1.374,4.997-3.45,6.739-6.229
		c1.742-2.765,2.61-5.84,2.61-9.213c0-3.508-0.838-6.548-2.527-9.118C404.579,80.932,401.914,78.791,398.27,77.078 M382.645,61.007
		h2.95c2.616,0,4.573,0.554,5.853,1.653c1.284,1.095,1.926,2.587,1.926,4.461c0,2.017-0.677,3.61-2.027,4.776
		c-1.351,1.172-3.42,1.749-6.203,1.749h-2.498V61.007z M395.099,97.431c-1.647,1.194-4.848,1.796-9.594,1.796h-2.86V83.846h2.373
		c4.503,0,7.721,0.75,9.652,2.243c1.94,1.498,2.903,3.538,2.903,6.126C397.573,94.493,396.752,96.236,395.099,97.431"/>
	<polygon clip-path="url(#SVGID_2_)" fill="#EE4044" points="472.824,108.606 483.328,94.045 493.885,108.606 506.813,108.606 
		489.773,85.113 504.846,64.225 492.124,64.225 483.397,76.323 474.626,64.225 461.702,64.225 476.952,85.261 460.114,108.606 	"/>
	<path clip-path="url(#SVGID_2_)" fill="#EE4044" d="M437.108,63.082c-12.854,0-23.272,10.443-23.272,23.332
		s10.419,23.339,23.272,23.339c12.853,0,23.272-10.45,23.272-23.339S449.961,63.082,437.108,63.082 M437.108,99.327
		c-6.691,0-12.115-5.781-12.115-12.913c0-7.125,5.424-12.906,12.115-12.906c6.69,0,12.114,5.781,12.114,12.906
		C449.223,93.545,443.799,99.327,437.108,99.327"/>
	<path clip-path="url(#SVGID_2_)" fill="#EE4044" d="M336.839,80.108c0-16.963-13.608-30.708-30.393-30.708
		c-6.406,0-12.341,2.015-17.249,5.435l-7.072-7.041l-7.672,7.672l7.096,7.066c-3.455,4.979-5.495,11.033-5.495,17.576
		c0,16.962,13.607,30.707,30.393,30.707c6.644,0,12.763-2.177,17.765-5.828l6.905,6.875l7.672-7.672l-7.064-7.036
		C334.952,92.276,336.839,86.417,336.839,80.108 M306.446,99.985c-10.618,0-19.217-8.899-19.217-19.877
		c0-3.468,0.862-6.728,2.373-9.565l26.722,26.593C313.435,98.932,310.063,99.985,306.446,99.985 M323.594,89.059l-26.462-26.331
		c2.76-1.587,5.931-2.498,9.314-2.498c10.616,0,19.222,8.897,19.222,19.878C325.668,83.33,324.906,86.364,323.594,89.059"/>
	<path clip-path="url(#SVGID_2_)" fill="#EE4044" d="M186.227,74.765c5.151,0,7.215,2.616,7.215,7.874
		c0,15.845-10.343,27.74-26.759,27.74c-16.642,0-28.233-13.211-28.233-30.215c0-17.063,11.503-30.189,28.233-30.189
		c12.395,0,22.571,5.829,22.571,11.55c0,3.563-2.218,5.758-5.085,5.758c-5.585,0-6.745-5.978-17.486-5.978
		c-10.247,0-15.439,8.938-15.439,18.859c0,10.034,5.013,18.902,15.439,18.902c6.489,0,13.941-3.634,13.941-12.985h-8.362
		c-3.366,0-5.751-2.384-5.751-5.738c0-3.449,2.617-5.578,5.751-5.578H186.227z"/>
	<path clip-path="url(#SVGID_2_)" fill="#EE4044" d="M91.929,109.586c13.216,0,25.479-9.915,25.479-23.398V57.526
		c0-3.966-2.539-6.19-5.947-6.19s-5.947,2.225-5.947,6.19v28.026c0,7.304-6.328,12.805-13.87,12.805S77.78,92.856,77.78,85.552
		V57.526c0-3.966-2.54-6.19-5.948-6.19c-3.408,0-5.948,2.225-5.948,6.19v28.662c0,13.483,12.259,23.398,25.475,23.398H91.929z"/>
	<path clip-path="url(#SVGID_2_)" fill="#EE4044" d="M53.981,51.335c-4.419,0-5.745,3.248-5.745,3.248l-17.04,34.484L14.043,54.583
		c0,0-1.356-3.248-5.823-3.248c-3.45,0-6.215,2.242-6.215,6.258v45.499c0,4.014,2.57,6.257,6.013,6.257
		c3.438,0,5.995-2.243,5.995-6.257V77.351l12.252,25.092c1.232,2.165,3.033,3.028,4.931,3.028c1.897,0,3.717-0.863,4.96-3.028
		l12.228-25.092v25.741c0,4.014,2.558,6.257,6.014,6.257c3.443,0,6.007-2.243,6.007-6.257V57.593
		C60.405,53.577,57.419,51.335,53.981,51.335"/>
	<path clip-path="url(#SVGID_2_)" fill="#EE4044" d="M53.981,51.335c-4.419,0-5.745,3.248-5.745,3.248l-17.04,34.484L14.043,54.583
		c0,0-1.356-3.248-5.823-3.248c-3.45,0-6.215,2.242-6.215,6.258v45.499c0,4.014,2.57,6.257,6.013,6.257
		c3.438,0,5.995-2.243,5.995-6.257V77.351l12.252,25.092c1.232,2.165,3.033,3.028,4.931,3.028c1.897,0,3.717-0.863,4.96-3.028
		l12.228-25.092v25.741c0,4.014,2.558,6.257,6.014,6.257c3.443,0,6.007-2.243,6.007-6.257V57.593
		C60.405,53.577,57.419,51.335,53.981,51.335"/>
	<path clip-path="url(#SVGID_2_)" fill="#EE4044" d="M134.469,59.737c0,3.052-2.474,5.525-5.525,5.525
		c-3.057,0-5.532-2.474-5.532-5.525c0-3.051,2.475-5.53,5.532-5.53C131.996,54.207,134.469,56.686,134.469,59.737"/>
	<path clip-path="url(#SVGID_2_)" fill="#EE4044" d="M134.469,78.739c0,3.052-2.474,5.524-5.525,5.524
		c-3.057,0-5.532-2.473-5.532-5.524c0-3.051,2.475-5.531,5.532-5.531C131.996,73.208,134.469,75.688,134.469,78.739"/>
	<path clip-path="url(#SVGID_2_)" fill="#EE4044" d="M228.575,49.974c-16.683,0-30.202,13.525-30.202,30.203
		c0,16.683,13.519,30.208,30.202,30.208c16.683,0,30.202-13.525,30.202-30.208C258.777,63.499,245.258,49.974,228.575,49.974
		 M240.946,90.995h-8.166v-7.894h-8.517v7.894h-8.053V76.703l12.372-10.366l12.364,10.366V90.995z"/>
</g>
</svg>
